<svg width="190" height="28" viewBox="0 0 190 28" fill="none" xmlns="http://www.w3.org/2000/svg">
<g clip-path="url(#clip0_285_77179)">
<path d="M30.4702 27.9993C24.7815 27.9993 20.1523 23.2973 20.1523 17.5192C20.1523 11.741 24.8543 7.03906 30.6325 7.03906C36.4106 7.03906 41.0729 11.741 41.0729 17.5192V25.9728C41.0729 26.9828 40.3576 27.7146 39.3709 27.7146C38.4503 27.7146 37.7186 26.9596 37.7086 25.996C37.7086 25.8404 37.6126 25.698 37.4735 25.6318C37.4205 25.6053 37.3609 25.592 37.3013 25.592C37.2086 25.592 37.1159 25.6252 37.0431 25.6848C35.2219 27.1781 32.8874 27.9993 30.4735 27.9993H30.4702ZM30.6325 10.3205C26.6656 10.3205 23.4371 13.549 23.4371 17.5192C23.4371 21.4894 26.6656 24.6748 30.6325 24.6748C34.1623 24.6748 37.1358 22.1285 37.702 18.6218C37.7053 18.602 37.7086 18.5788 37.7086 18.5556V18.5291C37.7086 18.3536 37.745 18.1516 37.7815 17.9596C37.7881 17.9331 37.7881 17.9066 37.7881 17.8801V17.5159C37.7881 13.4795 34.6457 10.3172 30.6325 10.3172V10.3205Z" fill="#181E49"/>
<path d="M58.5199 28C52.7185 28 48 23.2815 48 17.4801V1.70199C48 0.778146 48.7616 0 49.6622 0C50.6159 0 51.3642 0.748344 51.3642 1.70199V8.93377C51.3642 9.0894 51.4536 9.23179 51.5927 9.30132C51.649 9.32781 51.7119 9.34437 51.7715 9.34437C51.8609 9.34437 51.9503 9.31457 52.0232 9.25828C53.8576 7.82781 56.1656 7.04305 58.5199 7.04305C64.298 7.04305 69 11.7285 69 17.4834C69 23.2384 64.298 28.0033 58.5199 28.0033V28ZM58.4404 10.3212C54.8278 10.3212 51.851 12.8874 51.3609 16.4238C51.3543 16.4868 51.3477 16.543 51.3377 16.6026L51.3311 16.6424C51.3278 16.6656 51.3245 16.6921 51.3245 16.7185C51.3245 16.7583 51.3212 16.8013 51.3146 16.8444C51.2848 17.0199 51.2848 17.2219 51.2848 17.4801C51.2848 21.447 54.4967 24.6755 58.4404 24.6755C62.3841 24.6755 65.6357 21.447 65.6357 17.4801C65.6357 13.5132 62.4735 10.3245 58.4404 10.3245V10.3212Z" fill="#181E49"/>
<path d="M83.0066 27.7583C78.5728 27.7583 75.9238 24.8543 75.9238 19.9868V1.70199C75.9238 0.748344 76.6722 0 77.6258 0C78.5795 0 79.2881 0.764901 79.2881 1.70199V19.6623C79.2881 23.606 81.4867 24.4338 83.3311 24.4338C83.3742 24.4338 83.4205 24.4371 83.4636 24.4437C84.3973 24.5993 84.9106 25.1987 84.9106 26.1358C84.9106 26.9404 84.2549 27.7583 83.0066 27.7583Z" fill="#181E49"/>
<path d="M100.635 27.9993C94.8441 27.9993 90.4766 23.4762 90.4766 17.4795C90.4766 11.4828 94.9368 7.03906 100.635 7.03906C105.924 7.03906 110.066 11.4132 110.066 16.9927C110.066 18.2808 109.271 18.8569 108.483 18.8569H99.205C98.7779 18.8569 98.3739 18.6914 98.0726 18.3867C97.7713 18.0854 97.6024 17.6814 97.6024 17.2543C97.6024 16.3702 98.3209 15.6516 99.205 15.6516H106.318C106.443 15.6516 106.563 15.592 106.639 15.496C106.715 15.3967 106.745 15.2675 106.712 15.145C106.013 12.3503 103.49 10.3205 100.715 10.3205C97.4666 10.3205 94.8673 12.3801 94.0924 15.5656C93.9699 16.0523 93.8971 16.5556 93.8772 17.0589L93.8706 17.1914C93.811 18.7112 94.1554 20.1583 94.8706 21.3735C95.0527 21.6814 95.2514 21.9695 95.4666 22.2344C96.7547 23.8073 98.6057 24.6748 100.675 24.6748C102.745 24.6748 104.311 24.0589 105.503 22.7874C105.897 22.3934 106.384 22.1715 106.867 22.1715C107.301 22.1715 107.702 22.3503 107.996 22.6781C108.483 23.2444 108.606 24.2609 107.874 25.0225C106.718 26.3834 104.526 27.9993 100.635 27.9993Z" fill="#181E49"/>
<path d="M125.004 27.7583C120.57 27.7583 117.921 24.8543 117.921 19.9868V1.70199C117.921 0.748344 118.669 0 119.623 0C120.577 0 121.285 0.764901 121.285 1.70199V19.6623C121.285 23.606 123.484 24.4338 125.328 24.4338C125.371 24.4338 125.418 24.4371 125.461 24.4437C126.394 24.5993 126.908 25.1987 126.908 26.1358C126.908 26.9404 126.252 27.7583 125.004 27.7583Z" fill="#B08A49"/>
<path d="M135.967 27.7193C135.03 27.7193 134.265 26.9544 134.265 26.0173V10.3914C134.265 9.4378 135.013 8.68945 135.967 8.68945C136.92 8.68945 137.629 9.42124 137.629 10.3914V26.014C137.629 26.9378 136.867 27.7159 135.967 27.7159V27.7193Z" fill="#B08A49"/>
<path d="M8.71881 28.0002C6.4506 28.0002 4.35788 27.1525 2.82808 25.6128C1.04332 23.8148 0.0996094 21.1426 0.0996094 17.8843V2.26839C0.0996094 1.34786 0.861198 0.566406 1.76186 0.566406C2.7155 0.566406 3.46385 1.31475 3.46385 2.26839V18.0068C3.46385 21.083 4.84133 24.679 8.71881 24.679C11.0201 24.679 12.1029 24.1128 13.6658 22.8379C13.6791 22.8247 13.6956 22.8148 13.7089 22.8048C13.9804 22.6128 14.3148 22.5068 14.6493 22.5068C15.1426 22.5068 15.5864 22.7253 15.9042 23.1227C15.9307 23.1558 15.9539 23.1889 15.9738 23.2253C16.2983 23.7916 16.3082 24.7022 15.5698 25.3677C13.7254 27.1657 11.5499 28.0035 8.7155 28.0035L8.71881 28.0002Z" fill="#181E49"/>
<path d="M8.3514 10.6064C7.39776 10.6064 6.64941 9.85808 6.64941 8.90444C6.64941 7.9508 7.3812 7.24219 8.3514 7.24219H10.6858C11.6097 7.24219 12.3878 8.00378 12.3878 8.90444C12.3878 9.8051 11.6229 10.6064 10.6858 10.6064H8.3514Z" fill="#B08A49"/>
<path d="M135.967 5.73841C135.03 5.73841 134.265 4.97351 134.265 4.03642V1.70199C134.265 0.748344 135.013 0 135.967 0C136.914 0 137.629 0.731788 137.629 1.70199V4.03642C137.629 4.96027 136.867 5.73841 135.967 5.73841Z" fill="#181E49"/>
<path d="M163.222 27.8814C163.183 27.8814 163.146 27.8814 163.106 27.8781C162.216 27.8251 161.52 27.0635 161.52 26.143V16.9973C161.52 13.9973 159.987 11.5768 157.52 10.686C156.901 10.4642 156.487 9.85159 156.487 9.16616C156.487 8.24894 157.222 7.50391 158.126 7.50391C158.322 7.50391 158.514 7.53702 158.699 7.60656C162.484 8.97742 164.928 12.6794 164.928 17.037V26.1794C164.928 26.6496 164.756 27.0801 164.441 27.3946C164.126 27.7092 163.696 27.8814 163.226 27.8814H163.222Z" fill="#B08A49"/>
<path d="M147.404 27.88C147.368 27.88 147.335 27.88 147.298 27.88C146.404 27.8337 145.702 27.0721 145.702 26.1483V17.039C145.702 12.8238 148.136 9.15488 151.907 7.69461C152.103 7.61846 152.301 7.58203 152.507 7.58203C153.407 7.58203 154.143 8.31382 154.143 9.21448C154.143 9.90322 153.732 10.5224 153.119 10.7608C150.623 11.7277 149.07 14.1185 149.07 16.9992V26.1814C149.07 26.6582 148.904 27.0953 148.6 27.4032C148.298 27.7112 147.874 27.8834 147.407 27.8834L147.404 27.88Z" fill="#B08A49"/>
<path d="M174.563 27.7185C173.61 27.7185 172.861 26.9702 172.861 26.0166V1.70199C172.861 0.761589 173.626 0 174.563 0C175.5 0 176.226 0.764901 176.226 1.70199V5.12914C176.216 5.16556 176.209 5.20199 176.209 5.23841V26.1722C176.13 27.0331 175.404 27.7185 174.563 27.7185Z" fill="#B08A49"/>
<path d="M188.222 27.7177C187.742 27.7177 187.275 27.4959 186.937 27.1085L179.328 18.4462C179.077 18.1581 178.934 17.7906 178.921 17.3866C178.921 17.3502 178.921 17.327 178.921 17.3005V17.2575C178.921 17.2277 178.921 17.2045 178.921 17.1813C178.937 16.7707 179.077 16.4032 179.328 16.1151L186.937 7.38662C187.275 6.9992 187.742 6.77734 188.222 6.77734C188.613 6.77734 189 6.92635 189.308 7.19456C189.656 7.4992 189.865 7.91311 189.898 8.36013C189.928 8.81046 189.779 9.24754 189.477 9.59522L183.017 17.0058C182.884 17.1581 182.884 17.3899 183.017 17.5422L189.477 24.8966C189.782 25.2442 189.931 25.6846 189.901 26.1316C189.871 26.5787 189.663 26.9926 189.312 27.2972C189.004 27.5654 188.616 27.7144 188.226 27.7144L188.222 27.7177Z" fill="#B08A49"/>
</g>
<defs>
<clipPath id="clip0_285_77179">
<rect width="189.801" height="28" fill="white" transform="translate(0.0996094)"/>
</clipPath>
</defs>
</svg>
